<?xml version="1.0" encoding="utf-8"?>
<!-- Generator: Adobe Illustrator 21.0.0, SVG Export Plug-In . SVG Version: 6.00 Build 0)  -->
<svg version="1.1" id="Shape_1_1_" xmlns="http://www.w3.org/2000/svg" xmlns:xlink="http://www.w3.org/1999/xlink" x="0px" y="0px"
	 viewBox="0 0 512 512" style="enable-background:new 0 0 512 512;" xml:space="preserve">
<style type="text/css">
	.st0{fill:#e04a02;clip-rule:#e04a02;}
</style>
<g id="Shape_1">
	<g>
		<path class="st0" d="M486.4,411.3c-1.7-0.9-4.3-2.6-6-3.4c-14.9-7.6-30.3-14.4-46.1-20.4c-0.9-1.2-2-2.2-3.4-2.6
			c-19.6-6.8-41-13.7-62.3-18.8c-1.3-0.3-2.7-0.3-4.1,0.1c-10.4-2.5-21-4.6-31.7-6.6c0.5-3.2,0.7-6.4,0.8-9.8v-22.6
			c36-31.8,58.2-83.1,57.2-131V154c0.6-0.4,1.1-0.8,1.7-1.3c11.1-9.4,17.1-23,17.1-36.7C409.6,52.1,357.5,0,294.4,0h-75.9
			c-64,0-116.1,52.1-116.9,115.2c0,14.5,6,27.3,17.1,36.7c0.3,0.2,0.6,0.4,0.9,0.6v43.7c0,48.4,23,100.2,59.7,131.9v21.7
			c0,3,0.2,5.9,0.5,8.8c-53.1,9.5-103,25.4-148.1,48.4l-6,3.4C9.4,418.1,0,434.3,0,452.3v51.2c0,5.1,3.4,8.5,8.5,8.5h85.3h324.3
			h85.3c5.1,0,8.5-3.4,8.5-7.7v-51.2C512,436.1,501.8,419.8,486.4,411.3z M371.8,384.5c14.3,3.6,28.3,7.8,41.9,12.5l-41.6,46.7
			h-33.3L371.8,384.5z M217.6,17.1h75.9c52.3,0,95.3,40.8,98.8,92.2l-35.6-6c-67.4-11.9-135.7-11.9-201.4,0l-35.6,6
			C123.2,57.8,166.1,17.1,217.6,17.1z M122,126.3l36.7-6.8c64-11.9,129.7-11.9,195.4,0l36.4,6.8c-1.9,4.8-5,9.3-9.1,12.9
			c-0.2,0.2-0.5,0.4-0.7,0.6c-1,0.2-1.9,0.6-2.7,1.1c-3.7,2.8-7.6,4.5-11.7,5.3c-3.2,0.5-6.5,0.4-9.6-0.2
			c-61.2-11.6-123.1-12.7-182.5-3.2c-6.6,1-13.2,2-19.7,3.2c-1.1,0.1-2.1,0.2-3.2,0.2c-6.9-0.1-13.5-2-19-6.2
			C127.1,136.5,123.7,131.4,122,126.3z M136.5,196.3v-35c6.8,1.7,14.5,2.6,22.2,0.9c31.9-5.9,64.1-8.9,96.6-9c32.5,0,65.2,3,97.9,9
			c2.3,0.6,4.3,0.8,6.1,0.8c5.4,0.4,11-0.4,16.1-1.7v35c0,79.6-58.4,140.2-112.9,144.8c-0.6,0-1.2,0.1-1.8,0.1c-0.4,0-0.9,0-1.3,0.1
			c-1.1,0-2.3,0.1-3.4,0.1c-1.1,0-2.3,0-3.4-0.1c-0.4,0-0.8,0-1.3-0.1c-0.7,0-1.3-0.1-2-0.1c-11-0.9-22.1-4.1-32.9-9.3
			c-0.1,0-0.2-0.1-0.3-0.1c-0.1,0-0.1-0.1-0.2-0.1c-7.7-3.9-15.2-8.8-22.2-14.9c-0.8-0.5-1.7-0.9-2.6-1.2
			C160,289.6,136.5,246.7,136.5,196.3z M315.7,340.7v9.2c0,33.3-26.5,59.7-59.7,59.7c-33.3,0-59.7-26.5-59.7-59.7v-9.1
			c16.7,10.4,35.4,16.8,55.6,17.6c0.1,0,0.2,0,0.3,0c1.3,0,2.5,0.1,3.8,0.1c1.3,0,2.5,0,3.8-0.1c0.1,0,0.2,0,0.3,0
			C280.3,357.5,299.1,351.1,315.7,340.7z M183.5,375.5c0.5,1.3,1,2.6,1.5,3.9c0.2,0.4,0.3,0.8,0.5,1.2c0.2,0.4,0.3,0.7,0.5,1.1
			c3.5,7.8,8.3,14.8,14,20.9c0.3,0.3,0.6,0.6,0.9,1c0.4,0.4,0.7,0.8,1.1,1.1c0.7,0.7,1.3,1.3,2,1.9c0.1,0.1,0.2,0.2,0.2,0.2
			c11.8,10.7,26.8,17.7,43.5,19.4c0.3,0,0.5,0.1,0.8,0.1c0.9,0.1,1.9,0.2,2.8,0.2c0.3,0,0.6,0,1,0.1c1.2,0.1,2.4,0.1,3.6,0.1
			s2.4,0,3.7-0.1c0.3,0,0.6,0,0.9-0.1c1-0.1,2-0.1,2.9-0.2c0.2,0,0.5,0,0.7-0.1c24.4-2.5,45.6-16,57.7-36.3c0.1-0.1,0.1-0.2,0.2-0.4
			c0.2-0.3,0.3-0.5,0.5-0.8c2.5-4.2,4.6-8.6,6.3-13.2c8.4,1.4,16.7,3,24.9,4.8l-34.9,63.5H192.6l-34.8-63.4
			C166.3,378.5,174.8,376.9,183.5,375.5z M141,384.3l32.2,59.4h-33.3l-40.9-46.8C112.7,392.1,126.7,387.9,141,384.3z M85.3,486.4
			v8.5H17.1v-42.7c0-11.1,6-21.3,16.2-26.5l6-3.4c13.5-6.9,27.6-13.2,42.1-18.9l37.1,41.3C99.3,449,85.3,465.8,85.3,486.4z
			 M409.6,494.9H102.4v-8.5c0-14.5,11.1-25.6,25.6-25.6h8.5h51.2h136.5h51.2h8.5c14.5,0,25.6,11.1,25.6,25.6V494.9z M494.9,494.9
			h-68.3v-8.5c0-20.8-14.3-37.8-33.8-41.8l37.4-41.6c14.6,5.6,28.8,11.8,42.5,18.5c1.7,1.7,4.3,2.6,6,3.4
			c10.2,6,16.2,16.2,16.2,27.3V494.9z M213.3,76.8h85.3c5.1,0,8.5-3.4,8.5-8.5V34.1c0-5.1-3.4-8.5-8.5-8.5h-85.3
			c-5.1,0-8.5,3.4-8.5,8.5v34.1C204.8,73.4,208.2,76.8,213.3,76.8z M221.9,42.7h68.3v17.1h-68.3V42.7z M162.1,469.3
			c-5.1,0-8.5,3.4-8.5,8.5s3.4,8.5,8.5,8.5s8.5-3.4,8.5-8.5S167.3,469.3,162.1,469.3z M349.9,469.3c-5.1,0-8.5,3.4-8.5,8.5
			s3.4,8.5,8.5,8.5s8.5-3.4,8.5-8.5S355,469.3,349.9,469.3z"/>
	</g>
</g>
</svg>
